<svg width="862.899658203125px" height="122px" xmlns="http://www.w3.org/2000/svg" viewBox="-181.4498291015625 14 862.899658203125 122" style="background: rgba(0, 0, 0, 0);" preserveAspectRatio="xMidYMid"><defs><filter id="editing-neon" x="-100%" y="-100%" width="300%" height="300%"><feFlood flood-color="#00ff2f" result="flood"></feFlood><feComposite operator="in" in="flood" in2="SourceAlpha" result="color"></feComposite><feFlood flood-color="#00ff2f" result="flood2"></feFlood><feComposite operator="in" in="flood2" in2="SourceAlpha" result="color2"></feComposite><feMorphology operator="dilate" radius="2" in="color" result="dilate"></feMorphology><feGaussianBlur stdDeviation="6" in="color" result="blur1"></feGaussianBlur><feGaussianBlur stdDeviation="2.5" in="color" result="blur2"></feGaussianBlur><feGaussianBlur stdDeviation="1" in="SourceAlpha" result="blur3"></feGaussianBlur><feGaussianBlur stdDeviation="6" in="dilate" result="blur4"></feGaussianBlur><feConvolveMatrix in="color2" result="conv" order="3,3" divisor="1" kernelMatrix="1 1 1  1 1 1  1 1 1"></feConvolveMatrix><feMerge><feMergeNode in="blur1"></feMergeNode><feMergeNode in="blur2"></feMergeNode><feMergeNode in="blur4"></feMergeNode><feMergeNode in="blur3"></feMergeNode><feMergeNode in="blur3"></feMergeNode><feMergeNode in="blur3"></feMergeNode><feMergeNode in="blur3"></feMergeNode><feMergeNode in="conv"></feMergeNode><feMergeNode in="SourceGraphic"></feMergeNode></feMerge></filter></defs><g filter="url(#editing-neon)"><g transform="translate(-59.071977376937866, 104.79000091552734)"><path d="M42.62-26.56L42.62-26.56L42.62-26.56Q42.62 0.70 13.06 0.70L13.06 0.70L13.06 0.70Q8.32 0.70 0.51-0.45L0.51-0.45L7.68-38.27L7.68-38.27Q8.19-40.83 8.51-42.30L8.51-42.30L8.51-42.30Q18.24-43.01 22.56-43.01L22.56-43.01L22.56-43.01Q26.88-43.01 30.85-42.11L30.85-42.11L30.85-42.11Q34.82-41.22 37.44-39.23L37.44-39.23L37.44-39.23Q42.62-35.33 42.62-26.56ZM29.44-28.93L29.44-28.93L29.44-28.93Q29.44-38.46 22.59-38.46L22.59-38.46L21.95-38.46L21.95-38.46Q21.63-38.46 21.31-38.40L21.31-38.40L14.72-4.03L14.72-4.03Q14.98-3.90 15.23-3.90L15.23-3.90L15.74-3.90L15.74-3.90Q18.11-3.90 20.58-5.38L20.58-5.38L20.58-5.38Q23.04-6.85 24.96-9.86L24.96-9.86L24.96-9.86Q29.44-16.83 29.44-28.93ZM61.25-3.52L61.25-3.52L61.25-3.52Q59.26 1.28 52.93 1.28L52.93 1.28L52.93 1.28Q49.66 1.28 47.62-0.96L47.62-0.96L47.62-0.96Q45.89-2.94 45.89-4.93L45.89-4.93L45.89-4.93Q45.89-10.11 48.26-20.22L48.26-20.22L50.62-32.64L63.62-33.92L59.71-13.70L59.71-13.70Q58.62-8.96 58.62-7.30L58.62-7.30L58.62-7.30Q58.62-3.65 61.25-3.52ZM51.78-41.54L51.78-41.54L51.78-41.54Q51.78-44.03 53.86-45.38L53.86-45.38L53.86-45.38Q55.94-46.72 58.94-46.72L58.94-46.72L58.94-46.72Q61.95-46.72 63.78-45.38L63.78-45.38L63.78-45.38Q65.60-44.03 65.60-41.54L65.60-41.54L65.60-41.54Q65.60-39.04 63.58-37.76L63.58-37.76L63.58-37.76Q61.57-36.48 58.56-36.48L58.56-36.48L58.56-36.48Q55.55-36.48 53.66-37.76L53.66-37.76L53.66-37.76Q51.78-39.04 51.78-41.54ZM85.82-22.46L85.82-22.46L85.82-22.46Q86.72-24.83 86.72-26.88L86.72-26.88L86.72-26.88Q86.72-30.66 83.65-30.66L83.65-30.66L83.65-30.66Q82.05-30.66 80.74-29.22L80.74-29.22L80.74-29.22Q79.42-27.78 79.42-25.98L79.42-25.98L79.42-25.98Q79.42-24.70 80.45-23.68L80.45-23.68L80.45-23.68Q81.92-22.27 85.70-19.97L85.70-19.97L85.70-19.97Q89.47-17.66 90.91-15.78L90.91-15.78L90.91-15.78Q92.35-13.89 92.35-11.30L92.35-11.30L92.35-11.30Q92.35-8.70 91.10-6.34L91.10-6.34L91.10-6.34Q89.86-3.97 87.62-2.30L87.62-2.30L87.62-2.30Q82.82 1.28 75.14 1.28L75.14 1.28L75.14 1.28Q70.98 1.28 67.78-0.90L67.78-0.90L67.78-0.90Q64.58-3.01 64.58-5.50L64.58-5.50L64.58-5.50Q64.58-8 66.40-9.47L66.40-9.47L66.40-9.47Q68.22-10.94 70.91-10.94L70.91-10.94L70.91-10.94Q73.60-10.94 75.26-9.92L75.26-9.92L75.26-9.92Q74.43-7.81 74.43-6.40L74.43-6.40L74.43-6.40Q74.43-2.18 78.02-2.18L78.02-2.18L78.02-2.18Q79.55-2.18 80.58-3.14L80.58-3.14L80.58-3.14Q81.60-4.10 81.60-5.76L81.60-5.76L81.60-5.76Q81.60-9.02 76.10-12.48L76.10-12.48L76.10-12.48Q71.62-15.42 70.59-16.58L70.59-16.58L70.59-16.58Q68.86-18.62 68.86-21.18L68.86-21.18L68.86-21.18Q68.86-23.74 70.08-26.18L70.08-26.18L70.08-26.18Q71.30-28.61 73.54-30.34L73.54-30.34L73.54-30.34Q78.21-33.92 86.34-33.92L86.34-33.92L86.34-33.92Q90.50-33.92 92.96-32.26L92.96-32.26L92.96-32.26Q95.42-30.59 95.42-27.78L95.42-27.78L95.42-27.78Q95.42-24.96 93.73-23.36L93.73-23.36L93.73-23.36Q92.03-21.76 88.96-21.76L88.96-21.76L88.96-21.76Q86.85-21.76 85.82-22.46ZM129.22-26.62L129.22-26.62L129.22-26.62Q129.22-23.94 126.98-22.27L126.98-22.27L126.98-22.27Q124.74-20.61 121.09-20.61L121.09-20.61L121.09-20.61Q119.55-20.61 118.66-21.06L118.66-21.06L118.66-21.06Q119.36-22.72 119.58-24.80L119.58-24.80L119.58-24.80Q119.81-26.88 119.81-27.46L119.81-27.46L119.81-27.46Q119.81-30.14 117.95-30.14L117.95-30.14L117.95-30.14Q116.67-30.14 115.23-28.54L115.23-28.54L115.23-28.54Q113.79-26.94 112.58-24.45L112.58-24.45L112.58-24.45Q109.89-18.69 109.89-12.86L109.89-12.86L109.89-12.86Q109.89-9.66 111.10-8.22L111.10-8.22L111.10-8.22Q112.32-6.78 115.01-6.78L115.01-6.78L115.01-6.78Q118.72-6.78 121.66-9.86L121.66-9.86L121.66-9.86Q122.50-10.82 122.94-11.90L122.94-11.90L122.94-11.90Q125.38-10.62 125.38-7.10L125.38-7.10L125.38-7.10Q125.38-3.52 121.41-1.15L121.41-1.15L121.41-1.15Q117.31 1.28 110.78 1.28L110.78 1.28L110.78 1.28Q97.79 1.28 97.79-12.48L97.79-12.48L97.79-12.48Q97.79-22.53 103.49-28.29L103.49-28.29L103.49-28.29Q108.99-33.92 119.10-33.92L119.10-33.92L119.10-33.92Q129.22-33.92 129.22-26.62ZM144.90 1.28L144.90 1.28L144.90 1.28Q130.82 1.28 130.82-11.97L130.82-11.97L130.82-11.97Q130.82-21.38 136-27.46L136-27.46L136-27.46Q141.50-33.92 151.04-33.92L151.04-33.92L151.04-33.92Q157.95-33.92 161.47-30.72L161.47-30.72L161.47-30.72Q164.99-27.52 164.99-20.80L164.99-20.80L164.99-20.80Q164.99-10.56 159.49-4.61L159.49-4.61L159.49-4.61Q154.11 1.28 144.90 1.28ZM146.56-26.56L146.56-26.56L146.56-26.56Q145.79-24.83 145.18-22.24L145.18-22.24L145.18-22.24Q144.58-19.65 143.81-15.55L143.81-15.55L143.81-15.55Q143.04-11.46 143.04-6.40L143.04-6.40L143.04-6.40Q143.04-4.74 143.58-3.65L143.58-3.65L143.58-3.65Q144.13-2.56 145.60-2.56L145.60-2.56L145.60-2.56Q147.07-2.56 148-3.26L148-3.26L148-3.26Q148.93-3.97 149.63-5.63L149.63-5.63L149.63-5.63Q150.91-8.58 151.94-14.05L151.94-14.05L151.94-14.05Q152.96-19.52 153.06-21.89L153.06-21.89L153.06-21.89Q153.15-24.26 153.15-26.02L153.15-26.02L153.15-26.02Q153.15-27.78 152.64-28.93L152.64-28.93L152.64-28.93Q152.13-30.08 150.69-30.08L150.69-30.08L150.69-30.08Q149.25-30.08 148.29-29.18L148.29-29.18L148.29-29.18Q147.33-28.29 146.56-26.56ZM188.80-17.98L188.80-17.98L188.80-17.98Q191.10-22.08 191.10-26.24L191.10-26.24L191.10-26.24Q191.10-28.99 189.12-28.99L189.12-28.99L189.12-28.99Q187.58-28.99 185.98-26.37L185.98-26.37L185.98-26.37Q184.32-23.74 183.81-20.35L183.81-20.35L180.48 0L167.23 1.28L173.76-32.64L184.32-33.92L183.17-27.46L183.17-27.46Q186.30-33.92 193.34-33.92L193.34-33.92L193.34-33.92Q197.06-33.92 199.07-32L199.07-32L199.07-32Q201.09-30.08 201.09-26.14L201.09-26.14L201.09-26.14Q201.09-22.21 198.50-19.71L198.50-19.71L198.50-19.71Q195.90-17.22 191.49-17.22L191.49-17.22L191.49-17.22Q189.57-17.22 188.80-17.98ZM222.27-33.92L222.27-33.92L222.27-33.92Q224.58-33.92 226.37-33.41L226.37-33.41L226.37-33.41Q226.43-33.66 226.56-34.37L226.56-34.37L226.88-36.35L226.88-36.35Q227.14-37.63 227.52-39.74L227.52-39.74L228.54-44.80L241.28-46.08L234.18-8.96L234.18-8.96Q234.11-8.58 234.11-7.94L234.11-7.94L234.11-6.91L234.11-6.91Q234.11-5.50 234.82-4.45L234.82-4.45L234.82-4.45Q235.52-3.39 236.67-3.39L236.67-3.39L236.67-3.39Q235.39-0.38 231.49 0.90L231.49 0.90L231.49 0.90Q230.14 1.28 228.26 1.28L228.26 1.28L228.26 1.28Q226.37 1.28 224.64 0.29L224.64 0.29L224.64 0.29Q222.91-0.70 222.40-2.37L222.40-2.37L222.40-2.37Q221.38-0.70 219.33 0.29L219.33 0.29L219.33 0.29Q217.28 1.28 214.30 1.28L214.30 1.28L214.30 1.28Q211.33 1.28 208.86 0.51L208.86 0.51L208.86 0.51Q206.40-0.26 204.86-1.92L204.86-1.92L204.86-1.92Q202.05-5.18 202.05-12.61L202.05-12.61L202.05-12.61Q202.05-22.21 207.68-28.03L207.68-28.03L207.68-28.03Q213.31-33.92 222.27-33.92ZM221.82-30.08L221.82-30.08L221.82-30.08Q219.46-30.08 218.18-27.52L218.18-27.52L218.18-27.52Q216.90-24.96 215.58-18.62L215.58-18.62L215.58-18.62Q214.27-12.29 214.27-6.59L214.27-6.59L214.27-6.59Q214.27-2.69 216.58-2.69L216.58-2.69L216.58-2.69Q218.62-2.69 220.06-4.74L220.06-4.74L220.06-4.74Q221.50-6.78 222.08-10.18L222.08-10.18L225.54-28.93L225.54-28.93Q224.19-30.08 221.82-30.08ZM254.46-3.07L254.46-3.07L262.40-44.80L275.39-46.08L273.41-36.29L273.41-36.29Q272.70-33.28 271.81-31.17L271.81-31.17L271.81-31.17Q273.22-32.96 276.29-33.66L276.29-33.66L276.29-33.66Q277.18-33.92 278.27-33.92L278.27-33.92L278.27-33.92Q284.22-33.92 287.49-30.30L287.49-30.30L287.49-30.30Q290.75-26.69 290.75-19.71L290.75-19.71L290.75-19.71Q290.75-10.62 285.57-4.93L285.57-4.93L285.57-4.93Q280 1.28 269.89 1.28L269.89 1.28L269.89 1.28Q262.91 1.28 257.66-1.02L257.66-1.02L257.66-1.02Q255.81-1.86 254.46-3.07ZM270.72-22.40L267.33-3.65L267.33-3.65Q268.67-2.50 270.34-2.50L270.34-2.50L270.34-2.50Q272-2.50 272.96-3.14L272.96-3.14L272.96-3.14Q273.92-3.78 274.62-5.06L274.62-5.06L274.62-5.06Q276.54-8.51 278.08-19.07L278.08-19.07L278.08-19.07Q278.53-22.08 278.53-25.09L278.53-25.09L278.53-25.09Q278.53-28.10 277.86-29.06L277.86-29.06L277.86-29.06Q277.18-30.02 275.90-30.02L275.90-30.02L275.90-30.02Q272-30.02 270.72-22.40L270.72-22.40ZM314.94-7.23L314.94-7.23L314.94-7.23Q311.62-3.78 305.54-3.78L305.54-3.78L305.54-3.78Q297.92-3.78 296.32-9.34L296.32-9.34L296.32-9.34Q295.81-11.01 295.81-12.86L295.81-12.86L295.81-12.86Q295.81-14.72 296.19-16.64L296.19-16.64L299.20-32.64L312.19-33.92L308.67-15.30L308.67-15.30Q308.54-14.46 308.35-13.57L308.35-13.57L308.35-13.57Q308.16-12.67 308.16-11.74L308.16-11.74L308.16-11.74Q308.16-10.82 308.48-10.21L308.48-10.21L308.48-10.21Q308.80-9.60 309.25-9.22L309.25-9.22L309.25-9.22Q310.02-8.70 311.39-8.70L311.39-8.70L311.39-8.70Q312.77-8.70 313.95-10.37L313.95-10.37L313.95-10.37Q315.14-12.03 315.71-14.91L315.71-14.91L319.23-32.64L331.84-33.92L327.04-8.77L327.04-8.77Q324.67 3.52 319.81 8.38L319.81 8.38L319.81 8.38Q317.31 10.88 314.08 11.87L314.08 11.87L314.08 11.87Q310.85 12.86 306.69 12.86L306.69 12.86L306.69 12.86Q299.97 12.86 296.13 10.75L296.13 10.75L296.13 10.75Q292.29 8.64 292.29 5.12L292.29 5.12L292.29 5.12Q292.29 2.50 294.27 0.99L294.27 0.99L294.27 0.99Q296.26-0.51 299.33-0.51L299.33-0.51L299.33-0.51Q302.02-0.51 304.06 0.64L304.06 0.64L304.06 0.64Q305.28 1.34 305.86 2.24L305.86 2.24L305.86 2.24Q304.38 3.52 304.38 5.63L304.38 5.63L304.38 5.63Q304.38 8.45 306.94 8.45L306.94 8.45L306.94 8.45Q311.17 8.45 313.60-1.28L313.60-1.28L313.60-1.28Q314.30-4.16 314.94-7.23ZM366.46-22.46L366.46-22.46L366.46-22.46Q367.36-24.83 367.36-26.88L367.36-26.88L367.36-26.88Q367.36-30.66 364.29-30.66L364.29-30.66L364.29-30.66Q362.69-30.66 361.38-29.22L361.38-29.22L361.38-29.22Q360.06-27.78 360.06-25.98L360.06-25.98L360.06-25.98Q360.06-24.70 361.09-23.68L361.09-23.68L361.09-23.68Q362.56-22.27 366.34-19.97L366.34-19.97L366.34-19.97Q370.11-17.66 371.55-15.78L371.55-15.78L371.55-15.78Q372.99-13.89 372.99-11.30L372.99-11.30L372.99-11.30Q372.99-8.70 371.74-6.34L371.74-6.34L371.74-6.34Q370.50-3.97 368.26-2.30L368.26-2.30L368.26-2.30Q363.46 1.28 355.78 1.28L355.78 1.28L355.78 1.28Q351.62 1.28 348.42-0.90L348.42-0.90L348.42-0.90Q345.22-3.01 345.22-5.50L345.22-5.50L345.22-5.50Q345.22-8 347.04-9.47L347.04-9.47L347.04-9.47Q348.86-10.94 351.55-10.94L351.55-10.94L351.55-10.94Q354.24-10.94 355.90-9.92L355.90-9.92L355.90-9.92Q355.07-7.81 355.07-6.40L355.07-6.40L355.07-6.40Q355.07-2.18 358.66-2.18L358.66-2.18L358.66-2.18Q360.19-2.18 361.22-3.14L361.22-3.14L361.22-3.14Q362.24-4.10 362.24-5.76L362.24-5.76L362.24-5.76Q362.24-9.02 356.74-12.48L356.74-12.48L356.74-12.48Q352.26-15.42 351.23-16.58L351.23-16.58L351.23-16.58Q349.50-18.62 349.50-21.18L349.50-21.18L349.50-21.18Q349.50-23.74 350.72-26.18L350.72-26.18L350.72-26.18Q351.94-28.61 354.18-30.34L354.18-30.34L354.18-30.34Q358.85-33.92 366.98-33.92L366.98-33.92L366.98-33.92Q371.14-33.92 373.60-32.26L373.60-32.26L373.60-32.26Q376.06-30.59 376.06-27.78L376.06-27.78L376.06-27.78Q376.06-24.96 374.37-23.36L374.37-23.36L374.37-23.36Q372.67-21.76 369.60-21.76L369.60-21.76L369.60-21.76Q367.49-21.76 366.46-22.46ZM379.46-6.40L379.46-6.40L379.46-6.40Q379.46-8.13 380.35-12.48L380.35-12.48L383.74-29.76L379.97-29.76L380.22-31.68L380.22-31.68Q387.90-33.98 395.33-39.62L395.33-39.62L398.40-39.62L396.86-32.64L401.86-32.64L401.28-29.76L396.35-29.76L393.09-12.48L393.09-12.48Q392.26-8.51 392.26-7.17L392.26-7.17L392.26-7.17Q392.26-4.10 394.94-3.46L394.94-3.46L394.94-3.46Q394.30-1.28 392.00 0L392.00 0L392.00 0Q389.70 1.28 386.43 1.28L386.43 1.28L386.43 1.28Q383.17 1.28 381.31-0.77L381.31-0.77L381.31-0.77Q379.46-2.82 379.46-6.40ZM421.57-17.98L421.57-17.98L421.57-17.98Q423.87-22.08 423.87-26.24L423.87-26.24L423.87-26.24Q423.87-28.99 421.89-28.99L421.89-28.99L421.89-28.99Q420.35-28.99 418.75-26.37L418.75-26.37L418.75-26.37Q417.09-23.74 416.58-20.35L416.58-20.35L413.25 0L400.00 1.28L406.53-32.64L417.09-33.92L415.94-27.46L415.94-27.46Q419.07-33.92 426.11-33.92L426.11-33.92L426.11-33.92Q429.82-33.92 431.84-32L431.84-32L431.84-32Q433.86-30.08 433.86-26.14L433.86-26.14L433.86-26.14Q433.86-22.21 431.26-19.71L431.26-19.71L431.26-19.71Q428.67-17.22 424.26-17.22L424.26-17.22L424.26-17.22Q422.34-17.22 421.57-17.98ZM437.66-1.92L437.66-1.92L437.66-1.92Q436.16-3.58 435.49-6.21L435.49-6.21L435.49-6.21Q434.82-8.83 434.82-13.12L434.82-13.12L434.82-13.12Q434.82-17.41 436.29-21.31L436.29-21.31L436.29-21.31Q437.76-25.22 440.45-28.03L440.45-28.03L440.45-28.03Q445.95-33.92 455.04-33.92L455.04-33.92L455.04-33.92Q458.30-33.92 460.67-32.83L460.67-32.83L471.62-33.92L466.88-8.96L466.88-8.96Q466.69-8.19 466.69-6.78L466.69-6.78L466.69-6.78Q466.69-5.38 467.55-4.48L467.55-4.48L467.55-4.48Q468.42-3.58 469.70-3.46L469.70-3.46L469.70-3.46Q469.06-1.28 466.72 0L466.72 0L466.72 0Q464.38 1.28 461.76 1.28L461.76 1.28L461.76 1.28Q459.14 1.28 457.38 0.29L457.38 0.29L457.38 0.29Q455.62-0.70 455.10-2.37L455.10-2.37L455.10-2.37Q454.08-0.77 451.90 0.26L451.90 0.26L451.90 0.26Q449.73 1.28 446.82 1.28L446.82 1.28L446.82 1.28Q443.90 1.28 441.54 0.51L441.54 0.51L441.54 0.51Q439.17-0.26 437.66-1.92ZM451.17-27.90L451.17-27.90L451.17-27.90Q450.43-26.75 449.79-24.80L449.79-24.80L449.79-24.80Q449.15-22.85 448.10-17.63L448.10-17.63L448.10-17.63Q447.04-12.42 447.04-8.70L447.04-8.70L447.04-8.70Q447.04-4.99 447.62-3.90L447.62-3.90L447.62-3.90Q448.19-2.82 449.22-2.82L449.22-2.82L449.22-2.82Q451.26-2.82 452.77-4.77L452.77-4.77L452.77-4.77Q454.27-6.72 454.85-10.18L454.85-10.18L458.24-28.93L458.24-28.93Q456.90-30.08 455.33-30.08L455.33-30.08L455.33-30.08Q453.76-30.08 452.83-29.57L452.83-29.57L452.83-29.57Q451.90-29.06 451.17-27.90ZM486.91 0.83L482.82 0.70L482.82 0.70Q480.83 0.64 478.75 0.64L478.75 0.64L478.75 0.64Q476.67 0.64 474.62 0.90L474.62 0.90L474.62 0.90Q474.37-0.13 474.37-1.34L474.37-1.34L474.37-1.34Q474.37-3.90 475.81-5.44L475.81-5.44L475.81-5.44Q477.25-6.98 479.49-6.98L479.49-6.98L482.94-6.98L488.32-31.17L488.32-31.17Q486.34-29.18 482.24-29.18L482.24-29.18L482.24-29.18Q480.19-29.18 478.59-31.10L478.59-31.10L478.59-31.10Q476.99-32.90 476.74-35.46L476.74-35.46L476.74-35.46Q486.21-37.12 500.35-43.46L500.35-43.46L502.40-41.02L496.19-6.98L497.79-6.98L497.79-6.98Q501.63-6.98 503.62-7.68L503.62-7.68L503.62-7.68Q504.45-6.27 504.45-3.97L504.45-3.97L504.45-3.97Q504.45-1.66 502.75-0.29L502.75-0.29L502.75-0.29Q501.06 1.09 498.24 1.09L498.24 1.09L498.24 1.09Q492.54 1.09 486.91 0.83L486.91 0.83ZM513.02-26.75L513.02-26.75L513.02-26.75Q515.20-29.82 518.50-31.87L518.50-31.87L518.50-31.87Q521.79-33.92 525.82-33.92L525.82-33.92L525.82-33.92Q529.86-33.92 531.78-32.64L531.78-32.64L544.32-33.92L539.97-9.34L539.97-9.34Q537.73 3.20 532.99 8.13L532.99 8.13L532.99 8.13Q528.45 12.80 519.62 12.80L519.62 12.80L519.62 12.80Q512.90 12.80 509.06 10.69L509.06 10.69L509.06 10.69Q505.22 8.58 505.22 5.06L505.22 5.06L505.22 5.06Q505.22 2.43 507.20 0.93L507.20 0.93L507.20 0.93Q509.18-0.58 512.26-0.58L512.26-0.58L512.26-0.58Q514.94-0.58 516.99 0.64L516.99 0.64L516.99 0.64Q518.21 1.28 518.78 2.18L518.78 2.18L518.78 2.18Q517.31 3.46 517.31 5.57L517.31 5.57L517.31 5.57Q517.31 8.32 519.87 8.32L519.87 8.32L519.87 8.32Q524.16 8.32 526.59-1.79L526.59-1.79L526.59-1.79Q527.30-4.54 527.87-7.30L527.87-7.30L527.87-7.30Q524.99-3.78 518.46-3.78L518.46-3.78L518.46-3.78Q513.92-3.78 511.30-5.95L511.30-5.95L511.30-5.95Q508.67-8.13 508.67-13.25L508.67-13.25L508.67-13.25Q508.67-16.45 509.76-20.06L509.76-20.06L509.76-20.06Q510.85-23.68 513.02-26.75ZM521.34-13.06L521.34-13.06L521.34-13.06Q521.34-8.70 523.58-8.70L523.58-8.70L523.58-8.70Q525.12-8.70 526.59-10.37L526.59-10.37L526.59-10.37Q527.74-11.71 528.19-13.70L528.19-13.70L531.46-30.14L531.46-30.14Q531.14-30.21 530.82-30.34L530.82-30.34L530.82-30.34Q530.18-30.59 529.34-30.59L529.34-30.59L529.34-30.59Q525.44-30.59 523.14-24.19L523.14-24.19L523.14-24.19Q521.34-19.20 521.34-13.06ZM579.01-7.10L579.01-7.10L579.01-7.10Q579.01-4.29 581.89-3.46L581.89-3.46L581.89-3.46Q581.18-1.09 578.43 0.19L578.43 0.19L578.43 0.19Q576.13 1.28 573.60 1.28L573.60 1.28L573.60 1.28Q571.07 1.28 569.76 0.61L569.76 0.61L569.76 0.61Q568.45-0.06 567.74-1.15L567.74-1.15L567.74-1.15Q566.59-2.82 566.59-5.95L566.59-5.95L566.59-5.95Q566.59-7.81 567.62-12.93L567.62-12.93L568.51-17.79L568.51-17.79Q569.60-23.36 569.60-25.41L569.60-25.41L569.60-25.41Q569.60-28.99 567.62-28.99L567.62-28.99L567.62-28.99Q565.12-28.99 563.52-25.34L563.52-25.34L563.52-25.34Q562.88-23.94 562.43-21.82L562.43-21.82L558.08 0L545.22 1.28L554.24-44.80L567.10-46.08L566.59-43.52L566.59-43.52Q564.80-33.66 563.26-30.34L563.26-30.34L563.26-30.34Q566.85-33.92 573.44-33.92L573.44-33.92L573.44-33.92Q580.42-33.92 581.70-29.31L581.70-29.31L581.70-29.31Q582.14-27.84 582.14-26.56L582.14-26.56L582.14-26.56Q582.14-25.28 582.05-24.29L582.05-24.29L582.05-24.29Q581.95-23.30 581.63-21.50L581.63-21.50L580.80-16.90L579.33-9.66L579.33-9.66Q579.01-8.19 579.01-7.10ZM594.11-11.71L610.18-33.86L610.18-33.86Q604.35-31.42 599.30-31.42L599.30-31.42L599.30-31.42Q594.24-31.42 591.62-33.15L591.62-33.15L591.62-33.15Q588.99-34.88 588.99-37.89L588.99-37.89L588.99-37.89Q588.99-39.74 589.54-41.15L589.54-41.15L589.54-41.15Q590.08-42.56 591.49-44.29L591.49-44.29L591.49-44.29Q592.13-43.01 600.83-42.37L600.83-42.37L600.83-42.37Q603.14-42.24 605.18-42.24L605.18-42.24L619.39-42.24L620.80-36.86L617.86-32.26L614.98-27.33L611.07-20.10L611.07-20.10Q607.87-14.02 606.94-11.26L606.94-11.26L606.94-11.26Q606.02-8.51 605.82-7.42L605.82-7.42L605.82-7.42Q605.44-5.82 605.44-4.45L605.44-4.45L605.44-4.45Q605.44-3.07 606.14-2.37L606.14-2.37L606.14-2.37Q604.86-0.06 601.09 0.96L601.09 0.96L601.09 0.96Q599.87 1.28 598.40 1.28L598.40 1.28L598.40 1.28Q596.93 1.28 595.65 0.70L595.65 0.70L595.65 0.70Q594.37 0.13 593.54-0.77L593.54-0.77L593.54-0.77Q591.94-2.69 591.94-4.90L591.94-4.90L591.94-4.90Q591.94-7.10 592.58-8.67L592.58-8.67L592.58-8.67Q593.22-10.24 594.11-11.71L594.11-11.71Z" fill="none" stroke="#e9ffd4" stroke-width="1"></path></g></g><style>text {
  font-size: 64px;
  font-family: Arial Black;
  dominant-baseline: central;
  text-anchor: middle;
}</style></svg>